<svg xmlns="http://www.w3.org/2000/svg" width="268.741" height="30.252" viewBox="0 0 268.741 30.252">
  <g id="Group_1518" data-name="Group 1518" transform="translate(12266.758 -1634.156)">
    <g id="Group_1516" data-name="Group 1516" transform="translate(-160 -9)">
      <path id="Path_11985" data-name="Path 11985" d="M0,52.109Q10.846,64.252,21.683,76.4c-2.6-.006-5.2.014-7.8-.012Q6.967,68.593,0,60.828C0,57.921,0,55.014,0,52.109" transform="translate(-12106.758 1595.749)" fill="#f60"/>
      <path id="Path_11986" data-name="Path 11986" d="M580.571,216.112c2.353-4.532,4.636-9.1,7.033-13.611q3.5,6.8,7,13.611-7.014,0-14.031,0" transform="translate(-12646.082 1456.042)" fill="#0075ac"/>
      <path id="Path_11987" data-name="Path 11987" d="M.008,226.294q5.319,5.957,10.637,11.921-5.316,0-10.637,0,0-5.963,0-11.923" transform="translate(-12106.764 1433.939)" fill="#f60"/>
      <path id="Path_11997" data-name="Path 11997" d="M31.491,25.252q-2.875-3.2-5.748-6.394c1.679-.044,3.413.171,5.03-.393a7.181,7.181,0,0,0,3.673-2.919,11.154,11.154,0,0,0,1.681-7.485A9.768,9.768,0,0,0,32.994,1.67,7.073,7.073,0,0,0,28.335.013Q14.193,0,.054.011,3.825,4.244,7.6,8.472q0-.965,0-1.925c6.788.006,13.578-.013,20.364.01a1.672,1.672,0,0,1,1.55,1.471,5.9,5.9,0,0,1-.194,3.373,1.557,1.557,0,0,1-1.561.918q-8.363,0-16.726,0,7,7.84,14,15.686,2.48,0,4.96,0Z" transform="translate(-12106.808 1644.147)" fill="#0075ac"/>
      <path id="Path_11998" data-name="Path 11998" d="M457.523.007c-1.891-.015-3.781,0-5.672-.008q-5.972,11.665-11.939,23.333h0l-.059.113L438.545,26,438.537,26,437.5,28q3.666,0,7.332-.006,4.909-9.59,9.847-19.165,4.935,9.584,9.861,19.171h7.294q-7.15-14-14.314-27.99" transform="translate(-12513.178 1644.156)" fill="#00376f"/>
    </g>
    <g id="Group_1517" data-name="Group 1517" transform="translate(-84.352 -62.087)">
      <path id="Path_11988" data-name="Path 11988" d="M15.354,454.391l-1.844,1.241-1.806.6,7.939,7.3-3.612,3.649L6.324,455.971l1.693-3.235a6.515,6.515,0,0,0,2.653-.451,6.243,6.243,0,0,0,2.088-1.768,5.916,5.916,0,0,0,.828-3.009v-.639q-.113-.452-.188-.884a7.142,7.142,0,0,0-.64-1.561,3.053,3.053,0,0,0-1.768-1.636,8.036,8.036,0,0,0-3.085-.545l-1.016.038h-.9v22.011l.151,1.618H.906l.15-1.618v-22.8l-.113-3.2c.151,0,.382-.012.7-.038s.7-.075,1.147-.151l3.048-.15a26.074,26.074,0,0,1,5.512.564,8.3,8.3,0,0,1,4.1,1.994,9.658,9.658,0,0,1,2.276,3.385,11.586,11.586,0,0,1,.715,3.837,10.732,10.732,0,0,1-.056,1.354q-.056.377-.245,1.091a22.585,22.585,0,0,1-1.147,2.5,13.568,13.568,0,0,1-1.637,1.711" transform="translate(-12107.555 1259.316)" fill="#00376f"/>
      <path id="Path_11989" data-name="Path 11989" d="M103.019,438.727l12.755-.038h3.01l2.671-.188-1.806,5.305h-2.559l-2.182-.188H108.4v6.02l6.058-.075h2.935l1.994-.15-1.543,5.192-2.822-.113H108.4v7.262h10.874a3.182,3.182,0,0,1,.527-.075l2.069-.263-1.317,5.117-3.349-.151-2.747-.038H103.019l.151-1.731V440.5Z" transform="translate(-12188.673 1258.88)" fill="#00376f"/>
      <path id="Path_11990" data-name="Path 11990" d="M211.508,439.6l7.977,13.546L227.5,439.6h2.483l.038,1.129.038,1.355,2.258,20.657.3,2.258.339,2.22h-5.569l-.075-2.6a58.55,58.55,0,0,0-.451-7.112q-.189-1.542-.414-3.2t-.527-3.5l-6.472,11.852L212.9,450.737l-1.392,13.734-.113,1.392-.038,1.355h-5.493l.226-1.806.376-2.747.753-6.923.9-8.616.452-4.29.151-1.768a4.456,4.456,0,0,1,.075-.978V439.6Z" transform="translate(-12270.372 1258.007)" fill="#00376f"/>
      <path id="Path_11991" data-name="Path 11991" d="M349.884,467.218l.15-1.618V441.256l-.113-1.656h5.192l-.15,1.618V465.6l.15,1.618Z" transform="translate(-12384.78 1258.007)" fill="#00376f"/>
      <path id="Path_11992" data-name="Path 11992" d="M393.125,463.53v1.922l.15,1.621H388.12l.15-1.621V444.158l-2.182.075h-4.515l-1.129.113,1.354-4.929h19.754l-1.956,4.929-3.462-.226h-2.972Z" transform="translate(-12409.058 1258.153)" fill="#00376f"/>
      <path id="Path_11993" data-name="Path 11993" d="M503.38,464.028h5.569l1.58-.263h2.521v5.343H495.027l-.753-2.634,6.246-5.682a35.444,35.444,0,0,0,2.577-2.54,33.812,33.812,0,0,0,2.276-2.8,9.357,9.357,0,0,0,2.07-5.117v-.865a3.128,3.128,0,0,0-.492-1.185,3.2,3.2,0,0,0-1.324-1.11,5.156,5.156,0,0,0-1.627-.264,5.217,5.217,0,0,0-1.438.151l-1.1.452a4.634,4.634,0,0,0-1.8,1.919,27.061,27.061,0,0,0-1.04,3.236l-4.541-1.543a15.5,15.5,0,0,1,1.975-5.061,7.715,7.715,0,0,1,3.631-3.142,11.324,11.324,0,0,1,4.365-.941,8.468,8.468,0,0,1,4.515,1.223,8.07,8.07,0,0,1,2.935,2.916,7.119,7.119,0,0,1,.941,3.5,11.381,11.381,0,0,1-1.881,6.171,43.547,43.547,0,0,1-5.945,7.036Z" transform="translate(-12499.333 1256.117)" fill="#f60"/>
      <path id="Path_11994" data-name="Path 11994" d="M605.779,439.6h3.537l9.068,25.247,1.242,2.371h-5.418l-2.521-6.622h-8.428l-2.483,6.622h-5.305l.527-1.091.565-1.279Zm1.392,9.675-2.3,6.2v.189h5.042v-.227l-2.3-6.165-.263-.87Z" transform="translate(-12579.871 1258.007)" fill="#00376f"/>
      <path id="Path_11995" data-name="Path 11995" d="M725.356,450.587v15.051l.15,1.58h-5.23l.15-1.618V441.255l-.15-1.656h2.86l12.454,16.556V441.218l-.15-1.618h5.155l-.15,1.583V465.6l.15,1.62h-2.784Z" transform="translate(-12679.018 1258.007)" fill="#00376f"/>
      <path id="Path_11996" data-name="Path 11996" d="M836.038,458.411v1.919l.151,1.618h-5.155l.15-1.618V449.64l-8.428-13.926,4.7-2.748,1.392,2.749,4.967,8.737,4.816-7.638.752-1.317.6-1.166h6.773l-1.392,1.768-1.053,1.392-8.278,12.078Z" transform="translate(-12760.427 1263.277)" fill="#00376f"/>
    </g>
  </g>
</svg>
